<svg width="1531" height="1723" viewBox="0 0 1531 1723" fill="none" xmlns="http://www.w3.org/2000/svg">
<g clip-path="url(#clip0_221_1538)">
<path d="M1531 0H0V1722.38H1531V0Z" fill="#CDCCF9"/>
<path d="M0 338.096L36.3612 340.01C72.882 341.764 145.604 345.591 218.486 323.743C291.368 301.894 364.091 254.688 436.973 250.382C509.855 246.076 582.577 284.989 655.778 280.683C728.82 276.377 802.18 229.172 875.222 230.447C948.423 231.723 1021.15 281.8 1094.03 299.023C1166.91 316.247 1239.63 300.937 1312.51 271.593C1385.4 242.408 1458.12 199.349 1494.64 177.819L1531 156.29" stroke="#ABABF6" stroke-width="63.7917" stroke-linecap="round"/>
<g clip-path="url(#clip1_221_1538)">
<path d="M1531 0H0V1722.38H1531V0Z" fill="#EBEBFD"/>
<path d="M2071.47 179.523L1962.05 87.3691C1852.13 -5.23861 1633.3 -189.546 1492.32 -212.079C1351.34 -234.611 1288.68 -95.591 1221.15 33.9313C1153.34 162.888 1080.85 281.559 970.811 324.255C861 366.838 713.869 333.335 576.755 319.393C439.411 305.563 312.315 311.182 236.046 422.616C159.503 533.485 134.522 750.511 53.6108 852.335C-27.3001 954.16 -163.679 940.56 -231.826 934.437L-300.016 927.637L-794.207 -95.4811L-741.58 -120.901C-688.723 -146.432 -583.47 -197.272 -477.986 -248.224C-372.501 -299.175 -267.248 -350.015 -161.764 -400.966C-56.2803 -451.917 48.9729 -502.757 154.919 -553.931C260.633 -604.994 366.81 -656.28 472.525 -707.343C578.47 -758.517 683.723 -809.357 789.207 -860.308C894.691 -911.259 999.945 -962.099 1105.43 -1013.05C1210.91 -1064 1316.17 -1114.84 1369.02 -1140.37L1421.65 -1165.79L2071.47 179.523Z" fill="#CDCCF9"/>
<path d="M2173.43 632.209L2046.18 503.141C1918.34 373.442 1663.84 115.305 1511.72 69.7016C1359.6 24.0978 1310.31 190.804 1254.69 344.995C1198.72 498.443 1136.52 638.411 1025.19 678.444C914.094 718.366 754.104 658.242 607.132 623.89C459.929 589.651 325.975 581.072 258.878 711.495C191.422 841.176 191.644 1110.38 118.448 1228.18C45.2521 1345.97 -100.899 1312.14 -173.847 1296.08L-246.923 1279.16L-896.273 -65.1795L-843.647 -90.5993C-790.789 -116.131 -685.536 -166.971 -580.052 -217.922C-474.568 -268.873 -369.315 -319.713 -263.831 -370.664C-158.347 -421.616 -53.0937 -472.455 52.8519 -523.63C158.567 -574.693 264.743 -625.978 370.458 -677.041C476.404 -728.215 581.657 -779.055 687.141 -830.007C792.625 -880.958 897.878 -931.798 1003.36 -982.749C1108.85 -1033.7 1214.1 -1084.54 1266.96 -1110.07L1319.58 -1135.49L2173.43 632.209Z" fill="#CDCCF9"/>
<path d="M-389.129 1406.81L-279.712 1498.97C-169.79 1591.57 49.0447 1775.88 190.023 1798.41C331.001 1820.95 393.661 1681.93 461.194 1552.4C528.999 1423.45 601.488 1304.78 711.53 1262.08C821.34 1219.5 968.471 1253 1105.58 1266.94C1242.93 1280.77 1370.03 1275.15 1446.29 1163.72C1522.84 1052.85 1547.82 835.825 1628.73 734C1709.64 632.176 1846.02 645.775 1914.17 651.898L1982.36 658.698L2476.55 1681.82L2423.92 1707.24C2371.06 1732.77 2265.81 1783.61 2160.33 1834.56C2054.84 1885.51 1949.59 1936.35 1844.1 1987.3C1738.62 2038.25 1633.37 2089.09 1527.42 2140.27C1421.71 2191.33 1315.53 2242.62 1209.82 2293.68C1103.87 2344.85 998.617 2395.69 893.133 2446.64C787.649 2497.6 682.396 2548.43 576.912 2599.39C471.428 2650.34 366.174 2701.18 313.317 2726.71L260.69 2752.13L-389.129 1406.81Z" fill="#CDCCF9"/>
<path d="M1898.62 91.2637L1789.21 -0.890181C1679.29 -93.4979 1460.45 -277.806 1319.47 -300.338C1178.49 -322.87 1115.83 -183.85 1048.3 -54.3279C980.496 74.6291 908.007 193.3 797.966 235.995C688.156 278.579 541.024 245.076 403.911 231.134C266.566 217.304 139.47 222.923 63.2009 334.357C-13.3416 445.226 -38.3228 662.252 -119.234 764.076C-200.145 865.901 -336.524 852.301 -404.671 846.178L-472.861 839.378L-967.052 -183.74L-914.425 -209.16C-861.568 -234.692 -756.314 -285.532 -650.83 -336.483C-545.346 -387.434 -440.093 -438.274 -334.609 -489.225C-229.125 -540.177 -123.872 -591.016 -17.9262 -642.191C87.7886 -693.253 193.965 -744.539 299.68 -795.602C405.626 -846.776 510.879 -897.616 616.363 -948.567C721.847 -999.519 827.1 -1050.36 932.584 -1101.31C1038.07 -1152.26 1143.32 -1203.1 1196.18 -1228.63L1248.81 -1254.05L1898.62 91.2637Z" fill="#EBEBFD"/>
<path d="M-486.412 1213.84L-376.994 1306C-267.073 1398.6 -48.2375 1582.91 92.7408 1605.44C233.719 1627.98 296.379 1488.96 363.912 1359.43C431.717 1230.48 504.206 1111.81 614.247 1069.11C724.058 1026.53 871.189 1060.03 1008.3 1073.97C1145.65 1087.8 1272.74 1082.18 1349.01 970.75C1425.56 859.881 1450.54 642.855 1531.45 541.03C1612.36 439.206 1748.74 452.806 1816.88 458.929L1885.07 465.729L2379.26 1488.85L2326.64 1514.27C2273.78 1539.8 2168.53 1590.64 2063.04 1641.59C1957.56 1692.54 1852.31 1743.38 1746.82 1794.33C1641.34 1845.28 1536.09 1896.12 1430.14 1947.3C1324.42 1998.36 1218.25 2049.65 1112.53 2100.71C1006.59 2151.88 901.335 2202.72 795.851 2253.67C690.367 2304.63 585.113 2355.47 479.629 2406.42C374.145 2457.37 268.892 2508.21 216.035 2533.74L163.408 2559.16L-486.412 1213.84Z" fill="#CDCCF9"/>
<path d="M-299.821 1798.15L-183.921 1882.01C-67.4854 1966.28 164.314 2133.99 306.568 2146.09C448.822 2158.19 501.086 2014.94 558.908 1880.8C617.044 1747.21 680.608 1623.52 787.21 1572.85C893.591 1522.3 1042.79 1544.89 1180.56 1548.71C1318.55 1552.4 1444.88 1537.45 1512.75 1420.71C1580.93 1304.51 1589.88 1086.23 1663.08 978.733C1736.28 871.233 1873.29 874.764 1941.71 875.858L2010.21 877.623L2578.32 1861.62L2527.71 1890.84C2476.87 1920.19 2375.64 1978.64 2274.19 2037.21C2172.74 2095.78 2071.51 2154.22 1970.06 2212.8C1868.61 2271.37 1767.38 2329.81 1665.49 2388.64C1563.82 2447.34 1461.7 2506.3 1360.03 2565C1258.13 2623.83 1156.91 2682.27 1055.46 2740.85C954.005 2799.42 852.777 2857.86 751.326 2916.43C649.876 2975.01 548.647 3033.45 497.811 3062.8L447.197 3092.02L-299.821 1798.15Z" fill="#EBEBFD"/>
</g>
</g>
<defs>
<clipPath id="clip0_221_1538">
<rect width="1531" height="1722.38" fill="white"/>
</clipPath>
<clipPath id="clip1_221_1538">
<rect width="1531" height="1722.38" fill="white"/>
</clipPath>
</defs>
</svg>
