<svg width="1531" height="1723" viewBox="0 0 1531 1723" fill="none" xmlns="http://www.w3.org/2000/svg">
<g clip-path="url(#clip0_221_1538)">
<path d="M1531 0H0V1722.38H1531V0Z" fill="#CDCCF9"/>
<path d="M0 338.096L36.3612 340.01C72.882 341.764 145.604 345.591 218.486 323.743C291.368 301.894 364.091 254.688 436.973 250.382C509.855 246.076 582.577 284.989 655.778 280.683C728.82 276.377 802.18 229.172 875.222 230.447C948.423 231.723 1021.15 281.8 1094.03 299.023C1166.91 316.247 1239.63 300.937 1312.51 271.593C1385.4 242.408 1458.12 199.349 1494.64 177.819L1531 156.29" stroke="#ABABF6" stroke-width="63.7917" stroke-linecap="round"/>
<g clip-path="url(#clip1_221_1538)">
<path d="M1531 0H0V1722.38H1531V0Z" fill="#EBEBFD"/>
<path d="M2071.47 179.523L1962.05 87.3691C1852.13 -5.23861 1633.3 -189.546 1492.32 -212.079C1351.34 -234.611 1288.68 -95.591 1221.15 33.9313C1153.34 162.888 1080.85 281.559 970.811 324.255C861 366.838 713.869 333.335 576.755 319.393C439.411 305.563 312.315 311.182 236.046 422.616C159.503 533.485 134.522 750.511 53.6108 852.335C-27.3001 954.16 -163.679 940.56 -231.826 934.437L-300.016 927.637L-794.207 -95.4811L-741.58 -120.901C-688.723 -146.432 -583.47 -197.272 -477.986 -248.224C-372.501 -299.175 -267.248 -350.015 -161.764 -400.966C-56.2803 -451.917 48.9729 -502.757 154.919 -553.931C260.633 -604.994 366.81 -656.28 472.525 -707.343C578.47 -758.517 683.723 -809.357 789.207 -860.308C894.691 -911.259 999.945 -962.099 1105.43 -1013.05C1210.91 -1064 1316.17 -1114.84 1369.02 -1140.37L1421.65 -1165.79L2071.47 179.523Z" fill="#CDCCF9"/>
<path d="M2173.43 632.209L2046.18 503.141C1918.34 373.442 1663.84 115.305 1511.72 69.7016C1359.6 24.0978 1310.31 190.804 1254.69 344.995C1198.72 498.443 1136.52 638.411 1025.19 678.444C914.094 718.366 754.104 658.242 607.132 623.89C459.929 589.651 325.975 581.072 258.878 711.495C191.422 841.176 191.644 1110.38 118.448 1228.18C45.2521 1345.97 -100.899 1312.14 -173.847 1296.08L-246.923 1279.16L-896.273 -65.1795L-843.647 -90.5993C-790.789 -116.131 -685.536 -166.971 -580.052 -217.922C-474.568 -268.873 -369.315 -319.713 -263.831 -370.664C-158.347 -421.616 -53.0937 -472.455 52.8519 -523.63C158.567 -574.693 264.743 -625.978 370.458 -677.041C476.404 -728.215 581.657 -779.055 687.141 -830.007C792.625 -880.958 897.878 -931.798 1003.36 -982.749C1108.85 -1033.7 1214.1 -1084.54 1266.96 -1110.07L1319.58 -1135.49L2173.43 632.209Z" fill="#CDCCF9"/>
<path d="M-389.129 1406.81L-279.712 1498.97C-169.79 1591.57 49.0447 1775.88 190.023 1798.41C331.001 1820.95 393.661 1681.93 461.194 1552.4C528.999 1423.45 601.488 1304.78 711.53 1262.08C821.34 1219.5 968.471 1253 1105.58 1266.94C1242.93 1280.77 1370.03 1275.15 1446.29 1163.72C1522.84 1052.85 1547.82 835.825 1628.73 734C1709.64 632.176 1846.02 645.775 1914.17 651.898L1982.36 658.698L2476.55 1681.82L2423.92 1707.24C2371.06 1732.77 2265.81 1783.61 2160.33 1834.56C2054.84 1885.51 1949.59 1936.35 1844.1 1987.3C1738.62 2038.25 1633.37 2089.09 1527.42 2140.27C1421.71 2191.33 1315.53 2242.62 1209.82 2293.68C1103.87 2344.85 998.617 2395.69 893.133 2446.64C787.649 2497.6 682.396 2548.43 576.912 2599.39C471.428 2650.34 366.174 2701.18 313.317 2726.71L260.69 2752.13L-389.129 1406.81Z" fill="#CDCCF9"/>
<path d="M1898.62 91.2637L1789.21 -0.890181C1679.29 -93.4979 1460.45 -277.806 1319.47 -300.338C1178.49 -322.87 1115.83 -183.85 1048.3 -54.3279C980.496 74.6291 908.007 193.3 797.966 235.995C688.156 278.579 541.024 245.076 403.911 231.134C266.566 217.304 139.47 222.923 63.2009 334.357C-13.3416 445.226 -38.3228 662.252 -119.234 764.076C-200.145 865.901 -336.524 852.301 -404.671 846.178L-472.861 839.378L-967.052 -183.74L-914.425 -209.16C-861.568 -234.692 -756.314 -285.532 -650.83 -336.483C-545.346 -387.434 -440.093 -438.274 -334.609 -489.225C-229.125 -540.177 -123.872 -591.016 -17.9262 -642.191C87.7886 -693.253 193.965 -744.539 299.68 -795.602C405.626 -846.776 510.879 -897.616 616.363 -948.567C721.847 -999.519 827.1 -1050.36 932.584 -1101.31C1038.07 -1152.26 1143.32 -1203.1 1196.18 -1228.63L1248.81 -1254.05L1898.62 91.2637Z" fill="#EBEBFD"/>
<path d="M-486.412 1213.84L-376.994 1306C-267.073 1398.6 -48.2375 1582.91 92.7408 1605.44C233.719 1627.98 296.379 1488.96 363.912 1359.43C431.717 1230.48 504.206 1111.81 614.247 1069.11C724.058 1026.53 871.189 1060.03 1008.3 1073.97C1145.65 1087.8 1272.74 1082.18 1349.01 970.75C1425.56 859.881 1450.54 642.855 1531.45 541.03C1612.36 439.206 1748.74 452.806 1816.88 458.929L1885.07 465.729L2379.26 1488.85L2326.64 1514.27C2273.78 1539.8 2168.53 1590.64 2063.04 1641.59C1957.56 1692.54 1852.31 1743.38 1746.82 1794.33C1641.34 1845.28 1536.09 1896.12 1430.14 1947.3C1324.42 1998.36 1218.25 2049.65 1112.53 2100.71C1006.59 2151.88 901.335 2202.72 795.851 2253.67C690.367 2304.63 585.113 2355.47 479.629 2406.42C374.145 2457.37 268.892 2508.21 216.035 2533.74L163.408 2559.16L-486.412 1213.84Z" fill="#CDCCF9"/>
<path d="M-299.821 1798.15L-183.921 1882.01C-67.4854 1966.28 164.314 2133.99 306.568 2146.09C448.822 2158.19 501.086 2014.94 558.908 1880.8C617.044 1747.21 680.608 1623.52 787.21 1572.85C893.591 1522.3 1042.79 1544.89 1180.56 1548.71C1318.55 1552.4 1444.88 1537.45 1512.75 1420.71C1580.93 1304.51 1589.88 1086.23 1663.08 978.733C1736.28 871.233 1873.29 874.764 1941.71 875.858L2010.21 877.623L2578.32 1861.62L2527.71 1890.84C2476.87 1920.19 2375.64 1978.64 2274.19 2037.21C2172.74 2095.78 2071.51 2154.22 1970.06 2212.8C1868.61 2271.37 1767.38 2329.81 1665.49 2388.64C1563.82 2447.34 1461.7 2506.3 1360.03 2565C1258.13 2623.83 1156.91 2682.27 1055.46 2740.85C954.005 2799.42 852.777 2857.86 751.326 2916.43C649.876 2975.01 548.647 3033.45 497.811 3062.8L447.197 3092.02L-299.821 1798.15Z" fill="#EBEBFD"/>
<path d="M916.894 837.56C916.023 844.986 913.787 848.724 910.117 854.682C898.935 872.863 884.937 884.966 867.558 895.26C851.528 904.769 835.652 914.516 819.725 924.179C817.847 925.322 813.477 928.856 813.716 925.92C813.921 923.376 814.057 922.249 814.399 920.457C817.642 903.437 818.325 886.178 819.879 868.988C821.552 850.483 821.995 831.995 821.21 813.575C819.691 778.238 814.057 743.788 806.529 708.775C805.914 705.942 803.746 696.467 802.278 693.582C809.414 700.513 811.343 701.588 813.084 703.347C833.757 724.088 849.958 743.583 867.439 765.537C883.332 783.581 899.191 801.335 916.074 818.799C917.03 820.011 916.911 820.011 916.911 824.483C916.911 829.314 916.894 833.002 916.894 837.577V837.56Z" fill="#373636"/>
<path d="M721.839 605C740.532 605 759.208 605 777.901 605.017C799.461 605.461 821.073 604.146 842.054 611.521C878.654 624.393 902.537 649.129 913.445 686.293C915.238 692.421 917.098 698.652 916.996 705.224C916.962 744.3 916.945 783.393 916.911 822.469C904.141 811.356 894.326 797.494 882.751 785.254C872.167 774.038 862.573 761.883 852.416 750.241C840.039 736.055 827.578 721.954 815.081 707.888C813.613 706.232 814.928 707.7 813.613 706.232L811.411 703.62C810.199 702.425 809.841 701.879 809.26 701.264C805.897 696.791 801.646 692.882 797.959 688.614C785.6 674.257 761.478 677.057 751.475 695.016C741.642 712.667 736.691 731.992 732.15 751.402C729.282 763.676 727.353 776.172 725.014 788.566C721.498 798.808 719.142 787.012 716.957 784.69C708.233 775.335 700.347 765.195 691.196 756.216L691.282 756.284C690.394 755.26 689.882 753.911 689.404 752.785C686.331 748.824 684.146 744.249 680.322 740.749C667.911 729.397 650.943 732.453 642.356 746.81C631.943 764.222 629.86 783.939 625.404 802.991C622.468 815.504 620.676 828.29 618.354 840.957C618.166 841.998 618.235 843.244 616.067 843.654C614.155 839.523 613.352 835.084 613.352 830.373C613.386 791.673 612.379 752.955 613.625 714.289C615.162 667.531 643.192 627.158 688.09 611.487C699.135 607.629 710.419 606.332 721.822 605H721.839Z" fill="#373636" fill-opacity="0.8"/>
<path d="M773.923 735.031C774.094 734.484 774.879 734.467 775.05 735.014C780.683 751.965 782.015 768.9 783.637 785.885C786.027 810.997 785.293 836.109 784.763 861.152C784.183 888.346 780.444 915.319 771.602 941.301C769.075 948.693 765.234 950.57 757.433 949.358C741.027 946.832 727.985 937.392 714.396 929.027C693.348 916.07 672.333 903.062 651.148 890.326C645.958 887.22 643.415 884.488 646.044 877.848C653.845 858.199 656.098 837.184 659.649 816.528C660.332 812.533 661.391 808.624 663.968 804.715C667.621 820.847 671.087 837.013 674.962 853.094C678.974 869.756 683.259 886.4 691.623 901.542C696.489 910.368 702.259 918.255 714.191 917.401C725.561 916.582 732.628 910.078 737.545 900.484C744.68 886.588 748.214 871.548 751.082 856.389C757.825 820.676 761.974 784.503 769.997 749.029C771.072 744.317 772.558 739.691 773.923 735.031Z" fill="#373636"/>
<path d="M687.816 750.582C695.242 757.018 695.771 757.513 697.683 759.459C705.706 767.687 712.296 774.635 719.312 782.59C721.634 785.219 722.59 786.431 725.031 788.599C721.975 809.016 719.227 827.3 716.12 848.041L715.556 848.109C706.201 817.757 698.69 781.054 687.816 750.582Z" fill="#373636"/>
</g>
</g>
<path d="M495.757 1073.37V1008H508.271L536.099 1054.13H529.469L556.83 1008H569.25L569.437 1073.37H555.243L555.149 1029.76H557.764L535.912 1066.46H529.095L506.777 1029.76H509.952V1073.37H495.757ZM602.416 1073.37L574.214 1008H590.556L615.209 1065.9H605.591L630.617 1008H645.652L617.357 1073.37H602.416ZM649.242 1073.37V1008H677.538C683.39 1008 688.433 1008.96 692.666 1010.89C696.899 1012.76 700.168 1015.47 702.471 1019.02C704.775 1022.56 705.926 1026.8 705.926 1031.72C705.926 1036.57 704.775 1040.77 702.471 1044.32C700.168 1047.87 696.899 1050.61 692.666 1052.54C688.433 1054.41 683.39 1055.34 677.538 1055.34H657.647L664.371 1048.53V1073.37H649.242ZM664.371 1050.21L657.647 1043.02H676.697C681.366 1043.02 684.853 1042.02 687.156 1040.03C689.46 1038.04 690.612 1035.27 690.612 1031.72C690.612 1028.11 689.46 1025.3 687.156 1023.31C684.853 1021.32 681.366 1020.32 676.697 1020.32H657.647L664.371 1013.13V1050.21ZM761.828 1074.49C756.599 1074.49 751.587 1073.8 746.794 1072.43C742 1071 738.14 1069.16 735.214 1066.92L740.35 1055.53C743.152 1057.52 746.451 1059.17 750.249 1060.48C754.109 1061.72 758 1062.35 761.922 1062.35C764.91 1062.35 767.307 1062.07 769.112 1061.51C770.98 1060.88 772.35 1060.04 773.221 1058.98C774.093 1057.93 774.529 1056.71 774.529 1055.34C774.529 1053.6 773.844 1052.23 772.474 1051.23C771.105 1050.18 769.299 1049.33 767.058 1048.71C764.817 1048.03 762.326 1047.4 759.587 1046.84C756.91 1046.22 754.202 1045.48 751.463 1044.6C748.786 1043.73 746.327 1042.61 744.085 1041.24C741.844 1039.87 740.008 1038.07 738.576 1035.83C737.206 1033.58 736.521 1030.72 736.521 1027.23C736.521 1023.5 737.517 1020.11 739.51 1017.06C741.564 1013.94 744.615 1011.48 748.661 1009.68C752.77 1007.81 757.906 1006.88 764.07 1006.88C768.179 1006.88 772.225 1007.37 776.21 1008.37C780.194 1009.3 783.711 1010.74 786.762 1012.67L782.093 1024.15C779.042 1022.41 775.992 1021.13 772.941 1020.32C769.891 1019.45 766.902 1019.02 763.976 1019.02C761.05 1019.02 758.653 1019.36 756.786 1020.04C754.918 1020.73 753.579 1021.63 752.77 1022.75C751.961 1023.81 751.556 1025.06 751.556 1026.49C751.556 1028.17 752.241 1029.54 753.611 1030.6C754.98 1031.59 756.786 1032.4 759.027 1033.02C761.268 1033.65 763.727 1034.27 766.404 1034.89C769.143 1035.51 771.852 1036.23 774.529 1037.04C777.268 1037.85 779.758 1038.94 781.999 1040.31C784.241 1041.68 786.046 1043.48 787.416 1045.72C788.847 1047.97 789.563 1050.8 789.563 1054.22C789.563 1057.9 788.536 1061.26 786.482 1064.31C784.427 1067.36 781.346 1069.82 777.237 1071.68C773.19 1073.55 768.054 1074.49 761.828 1074.49ZM817.55 1074.11C811.636 1074.11 807.029 1072.62 803.729 1069.63C800.43 1066.58 798.78 1062.07 798.78 1056.09V1012.01H813.348V1055.9C813.348 1058.02 813.908 1059.67 815.029 1060.85C816.149 1061.97 817.675 1062.53 819.605 1062.53C821.908 1062.53 823.869 1061.91 825.488 1060.67L829.41 1070.94C827.916 1072 826.11 1072.81 823.994 1073.37C821.939 1073.86 819.791 1074.11 817.55 1074.11ZM791.029 1035.45V1024.25H825.861V1035.45H791.029ZM856.918 1074.11C852.747 1074.11 849.012 1073.3 845.712 1071.68C842.475 1070.07 839.953 1067.61 838.148 1064.31C836.342 1060.95 835.44 1056.68 835.44 1051.51V1023.13H850.008V1049.37C850.008 1053.54 850.879 1056.62 852.622 1058.61C854.428 1060.54 856.949 1061.51 860.186 1061.51C862.428 1061.51 864.42 1061.04 866.163 1060.11C867.906 1059.11 869.276 1057.61 870.272 1055.62C871.268 1053.57 871.766 1051.02 871.766 1047.97V1023.13H886.334V1073.37H872.513V1059.54L875.035 1063.56C873.354 1067.05 870.863 1069.69 867.564 1071.5C864.326 1073.24 860.778 1074.11 856.918 1074.11ZM919.534 1074.11C914.803 1074.11 910.538 1073.05 906.741 1070.94C902.943 1068.76 899.924 1065.74 897.682 1061.88C895.503 1058.02 894.414 1053.47 894.414 1048.25C894.414 1042.95 895.503 1038.38 897.682 1034.52C899.924 1030.66 902.943 1027.67 906.741 1025.55C910.538 1023.44 914.803 1022.38 919.534 1022.38C923.768 1022.38 927.472 1023.31 930.647 1025.18C933.822 1027.05 936.281 1029.88 938.024 1033.68C939.767 1037.48 940.639 1042.33 940.639 1048.25C940.639 1054.1 939.798 1058.95 938.118 1062.81C936.437 1066.61 934.009 1069.44 930.834 1071.31C927.721 1073.18 923.954 1074.11 919.534 1074.11ZM922.055 1062.16C924.421 1062.16 926.569 1061.6 928.499 1060.48C930.429 1059.36 931.954 1057.77 933.075 1055.72C934.258 1053.6 934.849 1051.11 934.849 1048.25C934.849 1045.32 934.258 1042.83 933.075 1040.77C931.954 1038.72 930.429 1037.13 928.499 1036.01C926.569 1034.89 924.421 1034.33 922.055 1034.33C919.628 1034.33 917.449 1034.89 915.519 1036.01C913.589 1037.13 912.032 1038.72 910.849 1040.77C909.729 1042.83 909.169 1045.32 909.169 1048.25C909.169 1051.11 909.729 1053.6 910.849 1055.72C912.032 1057.77 913.589 1059.36 915.519 1060.48C917.449 1061.6 919.628 1062.16 922.055 1062.16ZM935.223 1073.37V1063.09L935.503 1048.15L934.569 1033.3V1004.07H949.137V1073.37H935.223ZM960.752 1073.37V1023.13H975.32V1073.37H960.752ZM968.036 1016.12C965.359 1016.12 963.18 1015.34 961.499 1013.79C959.818 1012.23 958.978 1010.3 958.978 1008C958.978 1005.69 959.818 1003.76 961.499 1002.21C963.18 1000.65 965.359 999.873 968.036 999.873C970.713 999.873 972.892 1000.62 974.573 1002.11C976.254 1003.55 977.094 1005.41 977.094 1007.72C977.094 1010.14 976.254 1012.17 974.573 1013.79C972.954 1015.34 970.775 1016.12 968.036 1016.12ZM1010.88 1074.11C1005.52 1074.11 1000.76 1072.99 996.591 1070.75C992.482 1068.51 989.214 1065.46 986.786 1061.6C984.42 1057.68 983.237 1053.23 983.237 1048.25C983.237 1043.2 984.42 1038.75 986.786 1034.89C989.214 1030.97 992.482 1027.92 996.591 1025.74C1000.76 1023.5 1005.52 1022.38 1010.88 1022.38C1016.17 1022.38 1020.9 1023.5 1025.07 1025.74C1029.24 1027.92 1032.51 1030.94 1034.88 1034.8C1037.24 1038.66 1038.43 1043.14 1038.43 1048.25C1038.43 1053.23 1037.24 1057.68 1034.88 1061.6C1032.51 1065.46 1029.24 1068.51 1025.07 1070.75C1020.9 1072.99 1016.17 1074.11 1010.88 1074.11ZM1010.88 1062.16C1013.31 1062.16 1015.49 1061.6 1017.42 1060.48C1019.35 1059.36 1020.87 1057.77 1021.99 1055.72C1023.11 1053.6 1023.67 1051.11 1023.67 1048.25C1023.67 1045.32 1023.11 1042.83 1021.99 1040.77C1020.87 1038.72 1019.35 1037.13 1017.42 1036.01C1015.49 1034.89 1013.31 1034.33 1010.88 1034.33C1008.45 1034.33 1006.27 1034.89 1004.34 1036.01C1002.41 1037.13 1000.86 1038.72 999.673 1040.77C998.552 1042.83 997.992 1045.32 997.992 1048.25C997.992 1051.11 998.552 1053.6 999.673 1055.72C1000.86 1057.77 1002.41 1059.36 1004.34 1060.48C1006.27 1061.6 1008.45 1062.16 1010.88 1062.16Z" fill="#373636" fill-opacity="0.8"/>
<path d="M632.47 1103.97V1107.91C631.079 1107.18 629.831 1106.66 628.725 1106.34C627.619 1106.03 626.166 1105.87 624.365 1105.87C620.92 1105.87 618.045 1107.04 615.738 1109.38C613.463 1111.71 612.325 1114.76 612.325 1118.52C612.325 1122.44 613.463 1125.57 615.738 1127.91C618.013 1130.25 621.031 1131.42 624.791 1131.42C627.825 1131.42 630.416 1130.61 632.565 1129V1133.03C630.605 1134.36 627.92 1135.02 624.507 1135.02C619.704 1135.02 615.801 1133.55 612.799 1130.61C609.797 1127.64 608.296 1123.61 608.296 1118.52C608.296 1113.72 609.813 1109.82 612.847 1106.82C615.912 1103.78 619.751 1102.27 624.365 1102.27C627.683 1102.27 630.384 1102.83 632.47 1103.97ZM640.744 1110.61V1114.83C642.008 1111.86 644.188 1110.37 647.285 1110.37C647.854 1110.37 648.296 1110.4 648.612 1110.47V1114.16C647.949 1113.94 647.269 1113.83 646.574 1113.83C644.899 1113.83 643.509 1114.61 642.403 1116.15C641.297 1117.7 640.744 1119.49 640.744 1121.51V1134.64H636.999L637.047 1110.61H640.744ZM666.869 1121.08V1120.14C666.869 1118.14 666.332 1116.56 665.258 1115.4C664.183 1114.19 662.698 1113.59 660.802 1113.59C659.001 1113.59 657.468 1114.24 656.204 1115.54C654.94 1116.83 654.198 1118.68 653.977 1121.08H666.869ZM669.097 1129.9V1133.41C667.233 1134.39 664.957 1134.88 662.272 1134.88C658.638 1134.88 655.699 1133.77 653.455 1131.56C651.243 1129.32 650.137 1126.36 650.137 1122.69C650.137 1118.87 651.133 1115.85 653.123 1113.64C655.114 1111.43 657.674 1110.32 660.802 1110.32C663.804 1110.32 666.19 1111.29 667.959 1113.22C669.729 1115.14 670.614 1117.88 670.614 1121.42C670.614 1122.43 670.535 1123.36 670.377 1124.21H653.977C654.261 1126.58 655.162 1128.4 656.678 1129.66C658.195 1130.93 660.186 1131.56 662.651 1131.56C665.337 1131.56 667.485 1131.01 669.097 1129.9ZM688.316 1123.55H684.144C682.122 1123.55 680.605 1123.94 679.594 1124.73C678.583 1125.52 678.077 1126.52 678.077 1127.72C678.077 1128.92 678.472 1129.9 679.262 1130.66C680.052 1131.38 681.206 1131.75 682.722 1131.75C684.429 1131.75 685.788 1131.27 686.799 1130.33C687.81 1129.35 688.316 1128.11 688.316 1126.63V1123.55ZM675.897 1115.63V1111.89C677.698 1110.78 680.068 1110.23 683.007 1110.23C689.042 1110.23 692.06 1113.29 692.06 1119.42V1134.64H688.363V1131.8C687.131 1133.85 684.887 1134.88 681.632 1134.88C679.389 1134.88 677.572 1134.21 676.181 1132.89C674.823 1131.56 674.143 1129.88 674.143 1127.86C674.143 1125.55 675.012 1123.77 676.75 1122.51C678.52 1121.21 680.921 1120.56 683.955 1120.56H688.316V1119.33C688.316 1117.43 687.889 1116.01 687.036 1115.06C686.183 1114.08 684.745 1113.59 682.722 1113.59C680.163 1113.59 677.888 1114.27 675.897 1115.63ZM702.924 1113.64V1127.72C702.924 1130.28 704.124 1131.56 706.526 1131.56C707.758 1131.56 708.848 1131.2 709.796 1130.47V1134.02C708.754 1134.59 707.584 1134.88 706.289 1134.88C701.549 1134.88 699.179 1132.46 699.179 1127.62V1113.64H695.34V1110.61H699.179V1104.64H702.924V1110.61H709.559V1113.64H702.924ZM714.496 1134.64V1110.61H718.24V1134.64H714.496ZM714.59 1104.83C714.148 1104.35 713.927 1103.77 713.927 1103.07C713.927 1102.38 714.148 1101.79 714.59 1101.32C715.064 1100.84 715.649 1100.61 716.344 1100.61C717.039 1100.61 717.624 1100.84 718.098 1101.32C718.572 1101.79 718.809 1102.38 718.809 1103.07C718.809 1103.77 718.572 1104.35 718.098 1104.83C717.624 1105.27 717.039 1105.49 716.344 1105.49C715.649 1105.49 715.064 1105.27 714.59 1104.83ZM730.536 1134.64L722.146 1110.61H726.033L729.351 1120.75L732.858 1131.7C733.143 1130.34 734.327 1126.69 736.413 1120.75L739.826 1110.61H743.713L735.133 1134.64H730.536ZM762.714 1121.08V1120.14C762.714 1118.14 762.177 1116.56 761.103 1115.4C760.028 1114.19 758.543 1113.59 756.647 1113.59C754.846 1113.59 753.313 1114.24 752.049 1115.54C750.785 1116.83 750.043 1118.68 749.822 1121.08H762.714ZM764.942 1129.9V1133.41C763.078 1134.39 760.802 1134.88 758.116 1134.88C754.482 1134.88 751.544 1133.77 749.3 1131.56C747.088 1129.32 745.982 1126.36 745.982 1122.69C745.982 1118.87 746.978 1115.85 748.968 1113.64C750.959 1111.43 753.519 1110.32 756.647 1110.32C759.649 1110.32 762.035 1111.29 763.804 1113.22C765.574 1115.14 766.459 1117.88 766.459 1121.42C766.459 1122.43 766.38 1123.36 766.222 1124.21H749.822C750.106 1126.58 751.007 1128.4 752.523 1129.66C754.04 1130.93 756.031 1131.56 758.496 1131.56C761.182 1131.56 763.33 1131.01 764.942 1129.9ZM788.101 1122.98H799.43L798.814 1121.13L793.837 1105.77C793.458 1107.13 791.751 1112.27 788.718 1121.18L788.101 1122.98ZM803.317 1134.64L800.52 1126.25H787.011L784.167 1134.64H780.043L791.182 1102.69H796.491L807.44 1134.64H803.317ZM820.638 1130.71C822.376 1130.71 823.909 1130.04 825.236 1128.71C826.595 1127.36 827.274 1125.35 827.274 1122.69C827.274 1119.63 826.626 1117.35 825.331 1115.87C824.035 1114.38 822.534 1113.64 820.828 1113.64C818.774 1113.64 817.146 1114.46 815.946 1116.11C814.745 1117.72 814.144 1119.84 814.144 1122.46C814.144 1125.14 814.808 1127.2 816.135 1128.62C817.462 1130.01 818.963 1130.71 820.638 1130.71ZM827.274 1110.61H831.019V1132.7C831.019 1136.36 830.007 1139.11 827.985 1140.94C825.963 1142.81 823.356 1143.74 820.164 1143.74C817.257 1143.74 814.776 1143.25 812.722 1142.27V1138.53C814.745 1139.7 817.115 1140.28 819.832 1140.28C822.139 1140.28 823.956 1139.66 825.283 1138.43C826.61 1137.2 827.274 1135.27 827.274 1132.65V1129.95C825.694 1132.66 823.34 1134.02 820.212 1134.02C817.462 1134.02 815.108 1133.01 813.149 1130.99C811.221 1128.97 810.258 1126.16 810.258 1122.55C810.258 1118.98 811.158 1116.04 812.959 1113.74C814.761 1111.43 817.115 1110.28 820.022 1110.28C823.308 1110.28 825.726 1111.71 827.274 1114.59V1110.61ZM852.008 1121.08V1120.14C852.008 1118.14 851.471 1116.56 850.397 1115.4C849.322 1114.19 847.837 1113.59 845.941 1113.59C844.14 1113.59 842.607 1114.24 841.343 1115.54C840.08 1116.83 839.337 1118.68 839.116 1121.08H852.008ZM854.236 1129.9V1133.41C852.372 1134.39 850.097 1134.88 847.411 1134.88C843.777 1134.88 840.838 1133.77 838.594 1131.56C836.382 1129.32 835.276 1126.36 835.276 1122.69C835.276 1118.87 836.272 1115.85 838.263 1113.64C840.253 1111.43 842.813 1110.32 845.941 1110.32C848.943 1110.32 851.329 1111.29 853.099 1113.22C854.868 1115.14 855.753 1117.88 855.753 1121.42C855.753 1122.43 855.674 1123.36 855.516 1124.21H839.116C839.4 1126.58 840.301 1128.4 841.817 1129.66C843.334 1130.93 845.325 1131.56 847.79 1131.56C850.476 1131.56 852.625 1131.01 854.236 1129.9ZM864.212 1110.61V1114.78C865.634 1111.78 868.162 1110.28 871.796 1110.28C874.134 1110.28 875.999 1110.99 877.389 1112.41C878.779 1113.83 879.474 1115.73 879.474 1118.1V1134.64H875.73V1119.09C875.73 1117.32 875.272 1115.98 874.355 1115.06C873.471 1114.12 872.301 1113.64 870.848 1113.64C869.047 1113.64 867.482 1114.34 866.155 1115.73C864.86 1117.12 864.212 1119.05 864.212 1121.51V1134.64H860.515V1110.61H864.212ZM887.629 1122.74C887.661 1125.33 888.451 1127.5 889.999 1129.24C891.547 1130.94 893.744 1131.8 896.588 1131.8C898.42 1131.8 900.127 1131.27 901.707 1130.23V1133.79C900.19 1134.7 898.325 1135.16 896.114 1135.16C892.322 1135.16 889.304 1133.96 887.06 1131.56C884.848 1129.13 883.742 1126.17 883.742 1122.69C883.742 1119.28 884.848 1116.34 887.06 1113.88C889.304 1111.41 892.353 1110.18 896.208 1110.18C898.262 1110.18 900.095 1110.62 901.707 1111.51V1115.06C900.253 1114.08 898.547 1113.59 896.588 1113.59C893.87 1113.59 891.69 1114.48 890.046 1116.25C888.435 1117.99 887.629 1120.15 887.629 1122.74ZM913.163 1134.02L903.446 1110.61H907.665L910.793 1118.52L915.012 1129.43C915.265 1128.6 916.529 1124.97 918.804 1118.52L921.6 1110.61H925.629L916.955 1134.02C915.723 1137.28 914.253 1139.57 912.547 1140.9C910.872 1142.22 908.945 1142.89 906.764 1142.89C905.943 1142.89 905.279 1142.81 904.774 1142.65V1139.28C905.248 1139.41 905.785 1139.47 906.385 1139.47C909.577 1139.47 911.836 1137.66 913.163 1134.02Z" fill="#373636" fill-opacity="0.8"/>
<defs>
<clipPath id="clip0_221_1538">
<rect width="1531" height="1722.38" fill="white"/>
</clipPath>
<clipPath id="clip1_221_1538">
<rect width="1531" height="1722.38" fill="white"/>
</clipPath>
</defs>
</svg>
