<svg width="304" height="345" viewBox="0 0 304 345" fill="none" xmlns="http://www.w3.org/2000/svg">
<path d="M303.894 232.56C303.023 239.986 300.787 243.724 297.117 249.682C285.935 267.863 271.937 279.966 254.558 290.26C238.528 299.769 222.652 309.516 206.725 319.179C204.847 320.322 200.477 323.856 200.716 320.92C200.921 318.376 201.057 317.249 201.399 315.457C204.642 298.437 205.325 281.178 206.879 263.988C208.552 245.483 208.995 226.995 208.21 208.575C206.691 173.238 201.057 138.788 193.529 103.775C192.914 100.942 190.746 91.467 189.278 88.582C196.414 95.5129 198.343 96.5884 200.084 98.3467C220.757 119.088 236.958 138.583 254.439 160.537C270.332 178.581 286.191 196.335 303.074 213.799C304.03 215.011 303.911 215.011 303.911 219.483C303.911 224.314 303.894 228.002 303.894 232.577V232.56Z" fill="#373636"/>
<path d="M108.839 0C127.532 0 146.208 0 164.901 0.0170711C186.461 0.46092 208.073 -0.853556 229.054 6.52116C265.654 19.3928 289.537 44.1288 300.445 81.2926C302.238 87.4211 304.098 93.6521 303.996 100.224C303.962 139.3 303.945 178.393 303.911 217.469C291.141 206.356 281.326 192.494 269.751 180.254C259.167 169.038 249.573 156.883 239.416 145.241C227.039 131.055 214.578 116.954 202.081 102.888C200.613 101.232 201.928 102.7 200.613 101.232L198.411 98.6198C197.199 97.4248 196.841 96.8785 196.26 96.264C192.897 91.7913 188.646 87.882 184.959 83.6143C172.6 69.2575 148.478 72.0571 138.475 90.0159C128.642 107.667 123.691 126.992 119.15 146.402C116.282 158.676 114.353 171.172 112.014 183.566C108.498 193.808 106.142 182.012 103.957 179.69C95.2334 170.335 87.3466 160.195 78.1964 151.216L78.2818 151.284C77.3941 150.26 76.882 148.911 76.404 147.785C73.3312 143.824 71.1461 139.249 67.3222 135.749C54.9115 124.397 37.9428 127.453 29.356 141.81C18.9426 159.222 16.86 178.939 12.4044 197.991C9.46818 210.504 7.67571 223.29 5.35404 235.957C5.16626 236.998 5.23454 238.244 3.06651 238.654C1.15455 234.523 0.352207 230.084 0.352207 225.373C0.386349 186.673 -0.620846 147.955 0.625345 109.289C2.16174 62.5315 30.1925 22.1583 75.0895 6.48702C86.1345 2.62895 97.4185 1.33155 108.822 0H108.839Z" fill="#373636" fill-opacity="0.8"/>
<path d="M160.923 130.031C161.094 129.484 161.879 129.467 162.05 130.014C167.683 146.965 169.015 163.9 170.637 180.885C173.027 205.997 172.293 231.109 171.763 256.152C171.183 283.346 167.444 310.319 158.602 336.301C156.075 343.693 152.234 345.57 144.433 344.358C128.027 341.832 114.985 332.392 101.396 324.027C80.3476 311.07 59.3331 298.062 38.1479 285.326C32.9583 282.22 30.4147 279.488 33.0436 272.848C40.8451 253.199 43.0985 232.184 46.6493 211.528C47.3321 207.533 48.3905 203.624 50.9683 199.715C54.6215 215.847 58.0869 232.013 61.9621 248.094C65.9738 264.756 70.2586 281.4 78.6235 296.542C83.4887 305.368 89.2588 313.255 101.191 312.401C112.561 311.582 119.628 305.078 124.545 295.484C131.68 281.588 135.214 266.548 138.082 251.389C144.825 215.676 148.974 179.503 156.997 144.029C158.072 139.317 159.558 134.691 160.923 130.031Z" fill="#373636"/>
<path d="M74.8159 145.582C82.2418 152.018 82.7711 152.513 84.683 154.459C92.7064 162.687 99.2959 169.635 106.312 177.59C108.634 180.219 109.59 181.431 112.031 183.599C108.975 204.016 106.227 222.3 103.12 243.041L102.556 243.109C93.2015 212.757 85.6902 176.054 74.8159 145.582Z" fill="#373636"/>
</svg>
