<svg width="32" height="38" viewBox="0 0 32 38" fill="none" xmlns="http://www.w3.org/2000/svg">
<g filter="url(#filter0_d_182_1467)">
<path d="M26.6404 20.6464V10.4999C26.64 10.0551 26.5314 9.61816 26.3256 9.23304C26.1197 8.84792 25.8238 8.52811 25.4676 8.3057L17.2581 3.23242C16.9016 3.00979 16.4971 2.89258 16.0853 2.89258C15.6736 2.89258 15.2691 3.00979 14.9126 3.23242L6.70306 8.3057C6.34684 8.52811 6.05097 8.84792 5.84512 9.23304C5.63928 9.61816 5.5307 10.0551 5.53027 10.4999V20.6464C5.5307 21.0913 5.63928 21.5282 5.84512 21.9133C6.05097 22.2984 6.34684 22.6182 6.70306 22.8406L14.9126 27.9139C15.2691 28.1365 15.6736 28.2537 16.0853 28.2537C16.4971 28.2537 16.9016 28.1365 17.2581 27.9139L25.4676 22.8406C25.8238 22.6182 26.1197 22.2984 26.3256 21.9133C26.5314 21.5282 26.64 21.0913 26.6404 20.6464Z" stroke="white" stroke-width="2" stroke-linecap="round" stroke-linejoin="round"/>
<path d="M10.8079 5.69336L16.0854 8.99099L21.3629 5.69336" stroke="white" stroke-width="2" stroke-linecap="round" stroke-linejoin="round"/>
<path d="M10.8078 25.4534V18.8709L5.53027 15.5732" stroke="white" stroke-width="2" stroke-linecap="round" stroke-linejoin="round"/>
<path d="M26.6406 15.5732L21.363 18.8709V25.4534" stroke="white" stroke-width="2" stroke-linecap="round" stroke-linejoin="round"/>
<path d="M5.84692 9.18115L16.0853 15.5862L26.3238 9.18115" stroke="white" stroke-width="2" stroke-linecap="round" stroke-linejoin="round"/>
<path d="M16.0854 28.3579V15.5732" stroke="white" stroke-width="2" stroke-linecap="round" stroke-linejoin="round"/>
</g>
<defs>
<filter id="filter0_d_182_1467" x="-1.98804" y="0.353516" width="36.1467" height="38.4395" filterUnits="userSpaceOnUse" color-interpolation-filters="sRGB">
<feFlood flood-opacity="0" result="BackgroundImageFix"/>
<feColorMatrix in="SourceAlpha" type="matrix" values="0 0 0 0 0 0 0 0 0 0 0 0 0 0 0 0 0 0 127 0" result="hardAlpha"/>
<feOffset dy="4"/>
<feGaussianBlur stdDeviation="2"/>
<feComposite in2="hardAlpha" operator="out"/>
<feColorMatrix type="matrix" values="0 0 0 0 0 0 0 0 0 0 0 0 0 0 0 0 0 0 0.25 0"/>
<feBlend mode="normal" in2="BackgroundImageFix" result="effect1_dropShadow_182_1467"/>
<feBlend mode="normal" in="SourceGraphic" in2="effect1_dropShadow_182_1467" result="shape"/>
</filter>
</defs>
</svg>
