<svg width="1920" height="1080" viewBox="0 0 1920 1080" fill="none" xmlns="http://www.w3.org/2000/svg">
<rect width="1920" height="1080" fill="#EBEBFD"/>
<path d="M0 715L45.7 731.867C91.3 748.733 182.7 782.467 274.2 810.578C365.7 838.689 457.3 861.178 548.8 867.516C640.3 873.751 731.7 863.938 823 869.867C914.3 875.796 1005.7 897.671 1097 912.289C1188.3 926.907 1279.7 934.471 1371.2 913.311C1462.7 892.151 1554.3 842.471 1645.8 834.089C1737.3 825.707 1828.7 858.827 1874.3 875.284L1920 891.844V1079.93H1874.3C1828.7 1079.93 1737.3 1079.93 1645.8 1079.93C1554.3 1079.93 1462.7 1079.93 1371.2 1079.93C1279.7 1079.93 1188.3 1079.93 1097 1079.93C1005.7 1079.93 914.3 1079.93 823 1079.93C731.7 1079.93 640.3 1079.93 548.8 1079.93C457.3 1079.93 365.7 1079.93 274.2 1079.93C182.7 1079.93 91.3 1079.93 45.7 1079.93H0V715Z" fill="#CDCCF9"/>
</svg>
